<svg width="100" height="100" viewBox="0 0 100 100" fill="none" xmlns="http://www.w3.org/2000/svg">
<path d="M90 50C90 72.0914 72.0914 90 50 90C27.9086 90 10 72.0914 10 50C10 27.9086 27.9086 10 50 10C72.0914 10 90 27.9086 90 50Z" fill="url(#paint0_linear)"/>
<mask id="mask0" mask-type="alpha" maskUnits="userSpaceOnUse" x="10" y="10" width="80" height="80">
<path d="M90 50C90 72.0914 72.0914 90 50 90C27.9086 90 10 72.0914 10 50C10 27.9086 27.9086 10 50 10C72.0914 10 90 27.9086 90 50Z" fill="#F2994A"/>
</mask>
<g mask="url(#mask0)">
<g filter="url(#filter0_d)">
<path fill-rule="evenodd" clip-rule="evenodd" d="M25 100L25 -4.37114e-07L35 0L35 100L25 100Z" fill="white"/>
<path fill-rule="evenodd" clip-rule="evenodd" d="M19.5 100L19.5 -1.31134e-07L22.5 0L22.5 100L19.5 100Z" fill="white"/>
<path fill-rule="evenodd" clip-rule="evenodd" d="M74.4142 12.6568L33.5355 53.5355L26.4645 46.4645L67.3432 5.58578L74.4142 12.6568Z" fill="white"/>
<path fill-rule="evenodd" clip-rule="evenodd" d="M67.3431 94.4142L26.4645 53.5355L33.5355 46.4645L74.4142 87.3431L67.3431 94.4142Z" fill="white"/>
</g>
</g>
<defs>
<filter id="filter0_d" x="17.5" y="-1" width="60.9142" height="106" filterUnits="userSpaceOnUse" color-interpolation-filters="sRGB">
<feFlood flood-opacity="0" result="BackgroundImageFix"/>
<feColorMatrix in="SourceAlpha" type="matrix" values="0 0 0 0 0 0 0 0 0 0 0 0 0 0 0 0 0 0 127 0"/>
<feOffset dx="1" dy="2"/>
<feGaussianBlur stdDeviation="1.5"/>
<feColorMatrix type="matrix" values="0 0 0 0 0.94902 0 0 0 0 0.6 0 0 0 0 0.290196 0 0 0 0.7 0"/>
<feBlend mode="multiply" in2="BackgroundImageFix" result="effect1_dropShadow"/>
<feBlend mode="normal" in="SourceGraphic" in2="effect1_dropShadow" result="shape"/>
</filter>
<linearGradient id="paint0_linear" x1="20.5" y1="22.5" x2="77" y2="79" gradientUnits="userSpaceOnUse">
<stop stop-color="#F2994A"/>
<stop offset="0.982358" stop-color="#EDC345"/>
</linearGradient>
</defs>
</svg>
